#tb 0: 1001/30000
0,          0,          0,        1,   145848, 0xad4f07d0
0,          1,          1,        1,   145848, 0x5825120c
0,          2,          2,        1,   145848, 0x3eeb0da2
0,          3,          3,        1,   145848, 0xcb8b552c
0,          4,          4,        1,   145848, 0x47760242
0,          5,          5,        1,   145848, 0x300db218
0,          6,          6,        1,   145848, 0xef413a76
0,          7,          7,        1,   145848, 0x35ef8c97
0,          8,          8,        1,   145848, 0x9075e0e4
0,          9,          9,        1,   145848, 0xedfc1421
0,         10,         10,        1,   145848, 0x6b11ff04
0,         11,         11,        1,   145848, 0x07d46c17
0,         12,         12,        1,   145848, 0xeb65e8f5
0,         13,         13,        1,   145848, 0xd3ce9d91
0,         14,         14,        1,   145848, 0x2eec1e60
0,         15,         15,        1,   145848, 0x31bd643f
0,         16,         16,        1,   145848, 0xc7279b2d
0,         17,         17,        1,   145848, 0x1ec6e5d0
0,         18,         18,        1,   145848, 0x878e7dfb
0,         19,         19,        1,   145848, 0xe5d06c0f
0,         20,         20,        1,   145848, 0x67346b38
0,         21,         21,        1,   145848, 0xe6fb3974
0,         22,         22,        1,   145848, 0x85ff6677
0,         23,         23,        1,   145848, 0xbcb7185c
0,         24,         24,        1,   145848, 0xf83eb2c2
0,         25,         25,        1,   145848, 0x86f0f302
0,         26,         26,        1,   145848, 0x427a882b
0,         27,         27,        1,   145848, 0x6ee5d9ab
0,         28,         28,        1,   145848, 0x1da83f0e
0,         29,         29,        1,   145848, 0x6d4c21f0
0,         30,         30,        1,   145848, 0xccf4df3f
0,         31,         31,        1,   145848, 0x605cb762
0,         32,         32,        1,   145848, 0x183e01e4
0,         33,         33,        1,   145848, 0xdad146e6
0,         34,         34,        1,   145848, 0x3804955b
0,         35,         35,        1,   145848, 0x379e8a1c
0,         36,         36,        1,   145848, 0x73f3246b
0,         37,         37,        1,   145848, 0x5440b62a
0,         38,         38,        1,   145848, 0x4919daed
0,         39,         39,        1,   145848, 0x43f4c06d
0,         40,         40,        1,   145848, 0x96fd53a8
0,         41,         41,        1,   145848, 0x41efa7a7
0,         42,         42,        1,   145848, 0x6bd20430
0,         43,         43,        1,   145848, 0x25a69a61
0,         44,         44,        1,   145848, 0xb37a369f
0,         45,         45,        1,   145848, 0x5f32c40b
0,         46,         46,        1,   145848, 0x9774371c
0,         47,         47,        1,   145848, 0x27f28d2d
0,         48,         48,        1,   145848, 0xd4751a44
0,         49,         49,        1,   145848, 0x49df5cde
0,         50,         50,        1,   145848, 0x80829f9f
0,         51,         51,        1,   145848, 0xc6c3a17d
0,         52,         52,        1,   145848, 0xdbc0bf65
0,         53,         53,        1,   145848, 0xd941733a
0,         54,         54,        1,   145848, 0x1ca612a9
0,         55,         55,        1,   145848, 0xba52806b
0,         56,         56,        1,   145848, 0x387f1a1f
0,         57,         57,        1,   145848, 0x24e405c4
0,         58,         58,        1,   145848, 0xe35f8d73
0,         59,         59,        1,   145848, 0x5209a2e4
